<svg width="32" height="32" viewBox="0 0 32 32" fill="none" xmlns="http://www.w3.org/2000/svg">
<path d="M15.9999 4C10.7749 4 6.5459 8.238 6.5459 13.455C6.5459 18.426 10.3879 22.505 15.2729 22.878V28C18.6779 24.51 21.1099 21.928 22.5799 20.244C23.1722 19.6699 23.6872 19.0211 24.1119 18.314L24.1169 18.308L24.1239 18.294C24.9977 16.831 25.4575 15.1581 25.4539 13.454C25.4549 8.238 21.2259 4 15.9999 4ZM19.8209 9.818H21.2059C21.5429 9.819 21.8169 10.068 21.8179 10.376V16.533C21.8169 16.841 21.5429 17.09 21.2059 17.091H19.8199C19.4829 17.09 19.2089 16.841 19.2079 16.533V10.376C19.2079 10.069 19.4839 9.819 19.8209 9.818ZM13.2969 11.921H14.6829C15.0209 11.921 15.2939 12.171 15.2959 12.479V16.533C15.2939 16.841 15.0209 17.09 14.6829 17.091H13.2969C12.9599 17.09 12.6869 16.841 12.6869 16.533V12.479C12.6869 12.171 12.9599 11.921 13.2969 11.921ZM16.5189 13.455H17.9149C18.2519 13.455 18.5249 13.705 18.5249 14.013V16.533C18.5249 16.841 18.2519 17.09 17.9149 17.091H16.5189C16.1809 17.09 15.9069 16.841 15.9059 16.533V14.013C15.9069 13.705 16.1809 13.455 16.5189 13.455ZM10.0669 14.71H11.4629C11.7999 14.711 12.0729 14.96 12.0729 15.269V16.533C12.0729 16.841 11.7999 17.09 11.4629 17.091H10.0669C9.7289 17.09 9.4559 16.841 9.4549 16.533V15.269C9.4549 14.961 9.7289 14.711 10.0669 14.71Z" fill="#FF745C"/>
</svg>
