<svg width="32" height="32" viewBox="0 0 32 32" fill="none" xmlns="http://www.w3.org/2000/svg">
<g clip-path="url(#clip0_11_4975)">
<path d="M15.6104 5.10849V6.22158H13.6196V6.9455H15.6104V9.16249H16.3886V6.9455H18.4292V6.22158H16.3886V4H15.6104V5.10849Z" fill="#7099A6"/>
<path d="M9.10421 7.93167V9.54694H6.09082V10.5604H9.10421V13.8407H10.2218V10.5604H13.2804V9.54694H10.2218V6.31641H9.10421V7.93167Z" fill="#EB912C"/>
<path d="M21.7321 7.93167V9.54694H18.7188V10.6102H21.7321V13.8407H22.8949V10.6102H25.9082V9.54694H22.8949V6.31641H21.7321V7.93167Z" fill="#59879B"/>
<path d="M15.321 13.4339V15.2437H11.9683V16.592H15.321V20.2116H16.6784V16.592H20.031V15.2437H16.6784V11.624H15.321V13.4339Z" fill="#E8762C"/>
<path d="M25.1802 14.3479V15.4836H23.1396V16.402H25.1802V18.6688H26.1983V16.402H28.2388V15.4836H26.1983V13.2168H25.1802V14.3479Z" fill="#5B6591"/>
<path d="M5.75159 14.4472V15.5331H3.76074V16.3022H5.75159V18.4741H6.52973V16.3022L8.5703 16.2299V15.5331H6.52973V13.3613H5.75159V14.4472Z" fill="#7099A6"/>
<path d="M9.10421 19.5601V21.1754H6.09082V22.2386H9.10421V25.4692H10.267V22.2386H13.2804V21.1754H10.267V17.9448H9.10421V19.5601Z" fill="#C72035"/>
<path d="M21.7321 19.5601V21.1754H18.7188V22.1889H21.7321V25.4692H22.8949V22.1889H25.9082V21.1754H22.8949V17.9448H21.7321V19.5601Z" fill="#1F447E"/>
<path d="M15.5157 23.664V24.7951H13.4751V25.7136H15.5157V27.9804H16.5337V25.7136H18.5743V24.7951H16.5337V22.5283H15.5157V23.664Z" fill="#5B6591"/>
</g>
<defs>
<clipPath id="clip0_11_4975">
<rect width="24.48" height="24" fill="white" transform="translate(3.75977 4)"/>
</clipPath>
</defs>
</svg>
