<svg width="32" height="32" viewBox="0 0 32 32" fill="none" xmlns="http://www.w3.org/2000/svg">
<path d="M13.1465 2.6665C12.1351 2.6665 11.1652 3.06826 10.4501 3.7834C9.73493 4.49854 9.33317 5.46848 9.33317 6.47984V8.71984H15.0532C15.5732 8.71984 15.9998 9.47984 15.9998 9.99984H6.47984C5.46848 9.99984 4.49854 10.4016 3.7834 11.1167C3.06826 11.8319 2.6665 12.8018 2.6665 13.8132V18.8545C2.6665 19.8659 3.06826 20.8358 3.7834 21.5509C4.49854 22.2661 5.46848 22.6678 6.47984 22.6678H8.05317V19.0945C8.05142 18.5944 8.14841 18.0988 8.33859 17.6362C8.52877 17.1736 8.8084 16.7532 9.16144 16.3989C9.51448 16.0446 9.93398 15.7635 10.3959 15.5717C10.8578 15.3799 11.353 15.2812 11.8532 15.2812H18.8532C20.9598 15.2812 22.6665 13.5865 22.6665 11.4798V6.47984C22.6665 5.46848 22.2647 4.49854 21.5496 3.7834C20.8345 3.06826 19.8645 2.6665 18.8532 2.6665H13.1465ZM12.1865 4.81317C12.7198 4.81317 13.1465 4.97317 13.1465 5.75984C13.1465 6.5465 12.7198 6.94784 12.1865 6.94784C11.6665 6.94784 11.2398 6.54784 11.2398 5.76117C11.2398 4.9745 11.6665 4.81317 12.1865 4.81317Z" fill="#0288D1"/>
<path d="M23.9455 9.3335V12.9068C23.9471 13.4069 23.85 13.9023 23.6597 14.3647C23.4694 14.8271 23.1898 15.2475 22.8368 15.6016C22.4837 15.9557 22.0643 16.2367 21.6025 16.4284C21.1406 16.6201 20.6455 16.7188 20.1455 16.7188H13.1468C12.6467 16.7171 12.1511 16.8141 11.6885 17.0043C11.226 17.1944 10.8055 17.4741 10.4512 17.8271C10.0969 18.1801 9.81583 18.5996 9.62402 19.0615C9.43222 19.5235 9.33349 20.0187 9.3335 20.5188V25.5188C9.3335 26.5302 9.73526 27.5001 10.4504 28.2153C11.1655 28.9304 12.1355 29.3322 13.1468 29.3322H18.8535C19.8646 29.3322 20.8344 28.9306 21.5495 28.2157C22.2646 27.5009 22.6665 26.5313 22.6668 25.5202V23.2802H16.9455C16.4255 23.2802 16.0002 22.5202 16.0002 22.0002H25.5202C26.5315 22.0002 27.5015 21.5984 28.2166 20.8833C28.9317 20.1681 29.3335 19.1982 29.3335 18.1868V13.1468C29.3335 12.1355 28.9317 11.1655 28.2166 10.4504C27.5015 9.73526 26.5315 9.3335 25.5202 9.3335H23.9455ZM11.0935 15.3508L11.0882 15.3562L11.1388 15.3508H11.0935ZM19.8135 25.0522C20.3335 25.0522 20.7602 25.4522 20.7602 26.2388C20.7602 26.3631 20.7357 26.4862 20.6881 26.6011C20.6405 26.716 20.5708 26.8203 20.4829 26.9082C20.395 26.9961 20.2906 27.0659 20.1758 27.1134C20.0609 27.161 19.9378 27.1855 19.8135 27.1855C19.2802 27.1855 18.8535 27.0255 18.8535 26.2388C18.8535 25.4522 19.2802 25.0522 19.8135 25.0522Z" fill="#FDD835"/>
</svg>
