<svg width="32" height="32" viewBox="0 0 32 32" fill="none" xmlns="http://www.w3.org/2000/svg">
<g clip-path="url(#clip0_11_5018)">
<path d="M7.95515 11.5895C8.74856 11.5895 9.39174 10.9361 9.39174 10.13C9.39174 9.32388 8.74856 8.67041 7.95515 8.67041C7.16174 8.67041 6.51855 9.32388 6.51855 10.13C6.51855 10.9361 7.16174 11.5895 7.95515 11.5895Z" fill="#509EE3"/>
<path d="M7.95515 15.6764C8.74856 15.6764 9.39174 15.023 9.39174 14.2169C9.39174 13.4108 8.74856 12.7573 7.95515 12.7573C7.16174 12.7573 6.51855 13.4108 6.51855 14.2169C6.51855 15.023 7.16174 15.6764 7.95515 15.6764Z" fill="#509EE3"/>
<path opacity="0.2" d="M11.9776 11.5895C12.771 11.5895 13.4142 10.9361 13.4142 10.13C13.4142 9.32388 12.771 8.67041 11.9776 8.67041C11.1842 8.67041 10.541 9.32388 10.541 10.13C10.541 10.9361 11.1842 11.5895 11.9776 11.5895Z" fill="#509EE3"/>
<path d="M11.9776 15.716C12.771 15.716 13.4142 15.0625 13.4142 14.2564C13.4142 13.4503 12.771 12.7969 11.9776 12.7969C11.1842 12.7969 10.541 13.4503 10.541 14.2564C10.541 15.0625 11.1842 15.716 11.9776 15.716Z" fill="#509EE3"/>
<path opacity="0.2" d="M16.0001 11.5895C16.7935 11.5895 17.4367 10.9361 17.4367 10.13C17.4367 9.32388 16.7935 8.67041 16.0001 8.67041C15.2067 8.67041 14.5635 9.32388 14.5635 10.13C14.5635 10.9361 15.2067 11.5895 16.0001 11.5895Z" fill="#509EE3"/>
<path opacity="0.2" d="M16.0001 6.91911C16.7935 6.91911 17.4367 6.26565 17.4367 5.45956C17.4367 4.65347 16.7935 4 16.0001 4C15.2067 4 14.5635 4.65347 14.5635 5.45956C14.5635 6.26565 15.2067 6.91911 16.0001 6.91911Z" fill="#509EE3"/>
<path opacity="0.2" d="M16.0001 15.716C16.7935 15.716 17.4367 15.0625 17.4367 14.2564C17.4367 13.4503 16.7935 12.7969 16.0001 12.7969C15.2067 12.7969 14.5635 13.4503 14.5635 14.2564C14.5635 15.0625 15.2067 15.716 16.0001 15.716Z" fill="#509EE3"/>
<path opacity="0.2" d="M20.0225 11.5895C20.8159 11.5895 21.4591 10.9361 21.4591 10.13C21.4591 9.32388 20.8159 8.67041 20.0225 8.67041C19.2291 8.67041 18.5859 9.32388 18.5859 10.13C18.5859 10.9361 19.2291 11.5895 20.0225 11.5895Z" fill="#509EE3"/>
<path d="M24.045 11.5895C24.8384 11.5895 25.4816 10.9361 25.4816 10.13C25.4816 9.32388 24.8384 8.67041 24.045 8.67041C23.2516 8.67041 22.6084 9.32388 22.6084 10.13C22.6084 10.9361 23.2516 11.5895 24.045 11.5895Z" fill="#509EE3"/>
<path d="M20.0225 15.716C20.8159 15.716 21.4591 15.0625 21.4591 14.2564C21.4591 13.4503 20.8159 12.7969 20.0225 12.7969C19.2291 12.7969 18.5859 13.4503 18.5859 14.2564C18.5859 15.0625 19.2291 15.716 20.0225 15.716Z" fill="#509EE3"/>
<path d="M24.045 15.716C24.8384 15.716 25.4816 15.0625 25.4816 14.2564C25.4816 13.4503 24.8384 12.7969 24.045 12.7969C23.2516 12.7969 22.6084 13.4503 22.6084 14.2564C22.6084 15.0625 23.2516 15.716 24.045 15.716Z" fill="#509EE3"/>
<path d="M7.95515 19.7633C8.74856 19.7633 9.39174 19.1099 9.39174 18.3038C9.39174 17.4977 8.74856 16.8442 7.95515 16.8442C7.16174 16.8442 6.51855 17.4977 6.51855 18.3038C6.51855 19.1099 7.16174 19.7633 7.95515 19.7633Z" fill="#509EE3"/>
<path opacity="0.2" d="M11.9776 19.8029C12.771 19.8029 13.4142 19.1494 13.4142 18.3433C13.4142 17.5373 12.771 16.8838 11.9776 16.8838C11.1842 16.8838 10.541 17.5373 10.541 18.3433C10.541 19.1494 11.1842 19.8029 11.9776 19.8029Z" fill="#509EE3"/>
<path d="M16.0001 19.8029C16.7935 19.8029 17.4367 19.1494 17.4367 18.3433C17.4367 17.5373 16.7935 16.8838 16.0001 16.8838C15.2067 16.8838 14.5635 17.5373 14.5635 18.3433C14.5635 19.1494 15.2067 19.8029 16.0001 19.8029Z" fill="#509EE3"/>
<path opacity="0.2" d="M20.0225 19.8029C20.8159 19.8029 21.4591 19.1494 21.4591 18.3433C21.4591 17.5373 20.8159 16.8838 20.0225 16.8838C19.2291 16.8838 18.5859 17.5373 18.5859 18.3433C18.5859 19.1494 19.2291 19.8029 20.0225 19.8029Z" fill="#509EE3"/>
<path d="M24.045 19.8029C24.8384 19.8029 25.4816 19.1494 25.4816 18.3433C25.4816 17.5373 24.8384 16.8838 24.045 16.8838C23.2516 16.8838 22.6084 17.5373 22.6084 18.3433C22.6084 19.1494 23.2516 19.8029 24.045 19.8029Z" fill="#509EE3"/>
<path d="M7.95515 23.8498C8.74856 23.8498 9.39174 23.1963 9.39174 22.3902C9.39174 21.5841 8.74856 20.9307 7.95515 20.9307C7.16174 20.9307 6.51855 21.5841 6.51855 22.3902C6.51855 23.1963 7.16174 23.8498 7.95515 23.8498Z" fill="#509EE3"/>
<path opacity="0.2" d="M11.9776 23.8898C12.771 23.8898 13.4142 23.2363 13.4142 22.4303C13.4142 21.6242 12.771 20.9707 11.9776 20.9707C11.1842 20.9707 10.541 21.6242 10.541 22.4303C10.541 23.2363 11.1842 23.8898 11.9776 23.8898Z" fill="#509EE3"/>
<path opacity="0.2" d="M16.0001 23.8898C16.7935 23.8898 17.4367 23.2363 17.4367 22.4303C17.4367 21.6242 16.7935 20.9707 16.0001 20.9707C15.2067 20.9707 14.5635 21.6242 14.5635 22.4303C14.5635 23.2363 15.2067 23.8898 16.0001 23.8898Z" fill="#509EE3"/>
<path opacity="0.2" d="M16.0001 27.9762C16.7935 27.9762 17.4367 27.3228 17.4367 26.5167C17.4367 25.7106 16.7935 25.0571 16.0001 25.0571C15.2067 25.0571 14.5635 25.7106 14.5635 26.5167C14.5635 27.3228 15.2067 27.9762 16.0001 27.9762Z" fill="#509EE3"/>
<path opacity="0.2" d="M20.0225 23.8898C20.8159 23.8898 21.4591 23.2363 21.4591 22.4303C21.4591 21.6242 20.8159 20.9707 20.0225 20.9707C19.2291 20.9707 18.5859 21.6242 18.5859 22.4303C18.5859 23.2363 19.2291 23.8898 20.0225 23.8898Z" fill="#509EE3"/>
<path d="M24.045 23.8898C24.8384 23.8898 25.4816 23.2363 25.4816 22.4303C25.4816 21.6242 24.8384 20.9707 24.045 20.9707C23.2516 20.9707 22.6084 21.6242 22.6084 22.4303C22.6084 23.2363 23.2516 23.8898 24.045 23.8898Z" fill="#509EE3"/>
</g>
<defs>
<clipPath id="clip0_11_5018">
<rect width="18.9675" height="24" fill="white" transform="translate(6.5166 4)"/>
</clipPath>
</defs>
</svg>
