<svg width="32" height="32" viewBox="0 0 32 32" fill="none" xmlns="http://www.w3.org/2000/svg">
<g clip-path="url(#clip0_11_4970)">
<path d="M26.9801 4.99816C27.5443 5.54069 27.9132 6.25675 28 7.03797C28 7.36347 27.9132 7.5805 27.7178 7.99281C27.5226 8.40503 25.1139 12.5715 24.3978 13.7215C23.9855 14.3942 23.7685 15.1971 23.7685 15.9782C23.7685 16.7812 23.9855 17.5624 24.3978 18.2351C25.1139 19.3852 27.5225 23.5732 27.7179 23.9855C27.9132 24.3978 28 24.593 28 24.9186C27.9132 25.6998 27.5659 26.4159 27.0018 26.9367C26.4593 27.5009 25.7432 27.8698 24.9837 27.9349C24.6583 27.9349 24.4412 27.8481 24.0506 27.6528C23.6599 27.4574 19.4069 25.114 18.2568 24.3978C18.1699 24.3544 18.0832 24.2894 17.9747 24.246L12.2894 20.8825C12.4195 21.9675 12.8969 23.009 13.6781 23.7685C13.83 23.9204 13.9818 24.0507 14.1556 24.1808C14.0252 24.2459 13.8734 24.3111 13.7432 24.3978C12.5931 25.1139 8.40513 27.5225 7.99281 27.7179C7.5805 27.9132 7.38522 28 7.03797 28C6.25675 27.9132 5.54069 27.5659 5.01991 27.0018C4.45562 26.4593 4.08681 25.7432 4 24.962C4.02166 24.6365 4.10847 24.311 4.28219 24.0289C4.47738 23.6166 6.88609 19.4286 7.60216 18.2785C8.01447 17.6058 8.2315 16.8246 8.2315 16.0217C8.2315 15.2189 8.01447 14.4376 7.60216 13.7649C6.88609 12.5715 4.45572 8.38338 4.28209 7.97106C4.10847 7.68888 4.02166 7.36347 4 7.03797C4.08681 6.25675 4.43406 5.54069 4.99816 4.99816C5.54069 4.43406 6.25675 4.08681 7.03797 4C7.36347 4.02166 7.68897 4.10847 7.99281 4.28219C8.33997 4.43406 11.3997 6.21344 13.0272 7.16819L13.396 7.38522C13.5262 7.47197 13.6347 7.53706 13.7215 7.5805L13.8951 7.68897L19.6889 11.1175C19.5588 9.8155 18.8861 8.62206 17.8444 7.81919C17.9747 7.75412 18.1266 7.68887 18.2568 7.60216C19.4069 6.88609 23.5949 4.45572 24.0072 4.28209C24.2894 4.10847 24.6148 4.02166 24.962 4C25.7304 4.08764 26.4441 4.44065 26.9801 4.99816ZM16.3038 17.5407L17.5407 16.3038C17.7143 16.1302 17.7143 15.8698 17.5407 15.6962L16.3038 14.4593C16.1302 14.2857 15.8698 14.2857 15.6962 14.4593L14.4593 15.6962C14.2857 15.8698 14.2857 16.1302 14.4593 16.3038L15.6962 17.5407C15.8481 17.6926 16.1303 17.6926 16.3038 17.5407Z" fill="#FF694A"/>
</g>
<defs>
<clipPath id="clip0_11_4970">
<rect width="24" height="24" fill="white" transform="translate(4 4)"/>
</clipPath>
</defs>
</svg>
