<svg width="32" height="32" viewBox="0 0 32 32" fill="none" xmlns="http://www.w3.org/2000/svg">
<g clip-path="url(#clip0_11_4961)">
<path d="M11.7973 24.7375C11.7973 24.7375 10.5766 25.4473 12.666 25.6875C15.1972 25.9762 16.4908 25.9349 19.2803 25.4069C19.2803 25.4069 20.0137 25.8667 21.0378 26.2651C14.7847 28.945 6.88573 26.1098 11.7973 24.7375ZM11.0332 21.2402C11.0332 21.2402 9.66409 22.2537 11.755 22.4699C14.4589 22.7489 16.5942 22.7717 20.2892 22.0602C20.2892 22.0602 20.8003 22.5783 21.6039 22.8617C14.0435 25.0725 5.62256 23.036 11.0332 21.2402Z" fill="#5382A1"/>
<path d="M17.4747 15.3078C19.0156 17.0817 17.0699 18.678 17.0699 18.678C17.0699 18.678 20.9822 16.6584 19.1855 14.1293C17.5074 11.7709 16.2205 10.5989 23.1871 6.55859C23.1871 6.55859 12.2518 9.28978 17.4747 15.3078Z" fill="#E76F00"/>
<path d="M25.745 27.3242C25.745 27.3242 26.6483 28.0684 24.7501 28.6442C21.1408 29.7377 9.72748 30.0678 6.55689 28.6878C5.41719 28.1921 7.55453 27.504 8.22681 27.3595C8.92795 27.2075 9.32868 27.2358 9.32868 27.2358C8.06117 26.3429 1.13604 28.9891 5.81109 29.7468C18.5605 31.8144 29.052 28.8159 25.745 27.3242ZM12.3841 17.6167C12.3841 17.6167 6.57872 18.9957 10.3284 19.4963C11.9115 19.7083 15.0676 19.6604 18.0074 19.414C20.41 19.2114 22.8225 18.7804 22.8225 18.7804C22.8225 18.7804 21.9753 19.1433 21.3624 19.5618C15.467 21.1123 4.07819 20.391 7.35689 18.805C10.1297 17.4647 12.3841 17.6167 12.3841 17.6167ZM22.7986 23.4379C28.7916 20.3238 26.0207 17.3311 24.0866 17.7343C23.6125 17.8329 23.4012 17.9184 23.4012 17.9184C23.4012 17.9184 23.5772 17.6428 23.9133 17.5235C27.7394 16.1783 30.682 21.4908 22.6781 23.5949C22.6781 23.595 22.7709 23.5121 22.7986 23.4379Z" fill="#5382A1"/>
<path d="M19.1851 0.0342722C19.1851 0.0342722 22.5042 3.3545 16.0372 8.4598C10.8514 12.5552 14.8547 14.8903 16.0351 17.5582C13.008 14.8272 10.7865 12.4229 12.2769 10.1853C14.4643 6.90049 20.5242 5.30808 19.1851 0.0342722Z" fill="#E76F00"/>
<path d="M12.973 31.8764C18.7255 32.2447 27.5591 31.6721 27.7683 28.9502C27.7683 28.9502 27.3662 29.9821 23.0142 30.8016C18.1043 31.7255 12.0487 31.6177 8.45703 31.0255C8.45712 31.0255 9.1922 31.634 12.973 31.8764Z" fill="#5382A1"/>
</g>
<defs>
<clipPath id="clip0_11_4961">
<rect width="23.68" height="32" fill="white" transform="translate(4.16016)"/>
</clipPath>
</defs>
</svg>
