<svg width="36" height="32" viewBox="0 0 36 32" fill="none" xmlns="http://www.w3.org/2000/svg">
<g clip-path="url(#clip0_11_5050)">
<path d="M32.5139 16.0934C32.4835 16.0291 32.4699 15.9969 32.4535 15.9661C32.015 15.1402 31.5776 14.3143 31.1345 13.4884C31.0901 13.4056 31.0958 13.3568 31.1565 13.2853C31.8544 12.4783 32.5431 11.667 33.2421 10.8634C33.2668 10.8351 33.2888 10.805 33.298 10.7545C33.0951 10.8068 32.8922 10.8586 32.6881 10.9119C31.846 11.1328 30.9971 11.3527 30.1629 11.5771C30.0846 11.5979 30.049 11.5752 30.0096 11.5107C29.5316 10.7194 29.0502 9.92592 28.5666 9.14468C28.5418 9.10368 28.5149 9.06395 28.4621 9.02965C28.4234 9.24064 28.3841 9.45048 28.3461 9.66141C28.2119 10.4058 28.0777 11.1458 27.9447 11.8935C27.9302 11.9738 27.9103 12.0543 27.9034 12.1346C27.8967 12.2114 27.8567 12.2397 27.7861 12.2619C26.7929 12.571 25.802 12.8824 24.8099 13.1938C24.7664 13.2073 24.7237 13.2251 24.6768 13.267C25.4885 13.5862 26.3002 13.9054 27.1232 14.2302C27.0932 14.2537 27.0734 14.272 27.0514 14.286C26.5441 14.6108 26.0357 14.9355 25.5295 15.2614C25.4687 15.3007 25.4207 15.3063 25.3524 15.2758C24.7459 15.0058 24.1349 14.7401 23.5262 14.4722C23.2534 14.3518 23.0088 14.1921 22.8182 13.96C22.3864 13.4376 22.4721 12.8439 23.047 12.4756C23.2353 12.3561 23.4495 12.268 23.6626 12.1988C24.6355 11.8851 25.6129 11.5827 26.5824 11.2792C26.6643 11.2534 26.7019 11.2172 26.7177 11.1296C26.848 10.3849 26.9817 9.64087 27.119 8.89742C27.1917 8.49898 27.2299 8.09162 27.4257 7.72559C27.5006 7.58491 27.5903 7.44768 27.6984 7.33047C28.0863 6.90416 28.6263 6.88853 29.0401 7.29393C29.1787 7.43116 29.2971 7.59188 29.3997 7.75814C29.8506 8.48694 30.2948 9.2202 30.7412 9.95685C30.7936 10.0435 30.8407 10.0609 30.9374 10.0358C32.0264 9.74687 33.1162 9.46076 34.2067 9.17744C34.4321 9.11863 34.6587 9.09732 34.8898 9.14008C35.3915 9.23292 35.6114 9.61106 35.4412 10.0921C35.3641 10.3108 35.2303 10.495 35.0804 10.6702C34.3208 11.5552 33.5618 12.4407 32.8032 13.3265C32.741 13.3988 32.7398 13.4503 32.7829 13.5318C33.2383 14.3812 33.6892 15.2283 34.147 16.0877C34.2552 16.2908 34.3386 16.5028 34.3408 16.7361C34.3461 17.2673 33.953 17.7026 33.4198 17.7808C33.1211 17.8239 32.8437 17.7607 32.563 17.6753C31.88 17.4663 31.196 17.2602 30.5112 17.057C30.4478 17.0382 30.4235 17.0133 30.4121 16.9458C30.3337 16.4693 30.2475 15.9938 30.1641 15.5172C30.162 15.5042 30.1659 15.4902 30.1682 15.461C30.9472 15.6742 31.7239 15.8839 32.5243 16.1039" fill="#E25A1C"/>
<path d="M27.5409 14.442L27.2896 16.3435C27.2059 16.9755 27.1221 17.606 27.0382 18.2366L27.058 18.2502C27.9317 17.2925 28.8054 16.3305 29.696 15.3595L29.766 15.7591L29.8592 16.3009C29.8904 16.4817 29.9221 16.6625 29.9554 16.8427C29.9691 16.9155 29.9493 16.9599 29.9004 17.0112C29.3347 17.5972 28.771 18.185 28.2093 18.7747C28.1847 18.8005 28.1614 18.8271 28.1331 18.8576L28.1673 18.9127C28.1729 18.9216 28.1787 18.9302 28.1847 18.9386L29.1547 20.2891L31.0932 22.99C31.1108 23.0144 31.1363 23.0336 31.1579 23.0554L31.1579 23.0686L30.7925 23.0679C30.3004 23.0668 29.8087 23.0652 29.3127 23.0674C29.2312 23.0674 29.1853 23.0443 29.1402 22.9758C28.4119 21.8776 27.6747 20.7771 26.9531 19.6834L26.9199 19.6354C26.9045 19.6137 26.8867 19.5888 26.8638 19.5562L26.572 21.7537L26.3982 23.0606H24.786L24.8135 22.8308C24.8225 22.755 24.8317 22.6801 24.8416 22.6053C24.9592 21.7096 25.078 20.8202 25.1966 19.9278L25.3151 19.0338C25.4662 17.8954 25.6161 16.7571 25.7694 15.6186C25.7739 15.585 25.7968 15.5418 25.8244 15.524C26.3791 15.1657 26.936 14.8108 27.4929 14.4559C27.5009 14.4507 27.5123 14.4502 27.541 14.442M24.9541 16.6185L24.9612 16.6289L24.8141 17.7327L24.765 18.1022L24.223 18.1015C24.1036 18.1014 23.9844 18.1018 23.8654 18.1026C23.6241 18.1043 23.4043 18.2588 23.3311 18.4821C23.3028 18.5692 23.2924 18.6628 23.28 18.7544L22.829 22.1472C22.7912 22.4329 22.7547 22.7186 22.7168 23.0089H21.2174L21.2827 22.4959L21.2992 22.3693L21.4455 21.2667C21.4944 20.8995 21.5433 20.5334 21.5923 20.1707C21.6773 19.5356 21.7536 18.8983 21.8539 18.2621C21.988 17.414 22.8403 16.655 23.7028 16.6216C24.1154 16.6037 24.5291 16.6185 24.9541 16.6185ZM12.2734 16.9291C13.0265 17.409 13.4572 18.1122 13.5586 18.9827C13.6984 20.2216 13.2374 21.2483 12.3524 22.1077C11.7684 22.6669 11.0672 23.0218 10.2668 23.1424C9.4513 23.2639 8.68363 23.1343 7.99464 22.6711L7.95568 22.6445C7.93011 22.6267 7.90236 22.611 7.85841 22.5836L7.84802 22.5664L7.74399 23.3386L7.7105 23.5899C7.65158 24.0341 7.59211 24.4794 7.53579 24.9292C7.52923 24.9811 7.51337 25.0002 7.45698 24.9998C7.01391 24.9981 6.57085 25.0007 6.1267 24.9998C6.11658 24.9998 6.1064 24.9963 6.08261 24.9894L6.13592 24.569C6.1449 24.4988 6.15402 24.4288 6.16327 24.3589C6.26101 23.6222 6.35828 22.8856 6.45746 22.149C6.57133 21.3052 6.66039 20.4638 6.80585 19.6267C7.06286 18.1423 8.339 16.87 9.82711 16.5463C10.6918 16.3611 11.5182 16.4469 12.2734 16.9291ZM5.04132 14.1694C5.73688 14.1943 6.29266 14.5165 6.72109 15.0523C6.78484 15.132 6.84732 15.2128 6.90851 15.2944L7.09423 15.5423L5.64966 16.6077C5.57222 16.4872 5.50311 16.3666 5.42191 16.2539C5.21337 15.9648 4.95411 15.7495 4.57755 15.7237C4.26415 15.7019 3.99587 15.8039 3.78275 16.0329C3.59225 16.2371 3.56744 16.5285 3.74536 16.7595C3.94153 17.0139 4.15568 17.255 4.37557 17.4905C4.47953 17.6022 4.58486 17.7125 4.69067 17.8224L5.00872 18.1515C5.16757 18.3163 5.32574 18.4819 5.48035 18.6512C5.80845 19.0084 6.07106 19.4079 6.15226 19.9012C6.24871 20.4816 6.13162 21.0285 5.85458 21.5419C5.34167 22.485 4.53558 23.0374 3.46463 23.2048C2.99341 23.2802 2.52444 23.2654 2.06668 23.1315C1.45684 22.9541 1.03182 22.5579 0.758959 22.0043C0.662582 21.8067 0.588761 21.598 0.501953 21.386L2.08022 20.55L2.10927 20.6213C2.11533 20.6359 2.12166 20.6501 2.12827 20.6639C2.14618 20.6994 2.16363 20.7352 2.18063 20.7714L2.23169 20.8799C2.28295 20.9883 2.33592 21.0955 2.40223 21.194C2.73251 21.6795 3.26463 21.8268 3.80011 21.5869C3.94085 21.5235 4.07119 21.4396 4.18678 21.338C4.53401 21.0321 4.59942 20.6058 4.34235 20.2219C4.19471 20.0009 4.00981 19.8022 3.82943 19.6047C3.39881 19.1315 2.95007 18.6728 2.53299 18.1873C2.24324 17.8547 2.04597 17.4685 1.98281 17.0266C1.91467 16.54 2.01289 16.0824 2.26805 15.6761C2.90277 14.6594 3.82376 14.136 5.04132 14.1694ZM10.0045 17.947C9.04515 18.1676 8.35226 18.9083 8.24919 19.8769L8.24577 19.9113C8.1714 20.6367 8.566 21.3398 9.29874 21.5965C9.88951 21.8075 10.4599 21.7193 10.9898 21.4057C11.6899 20.9905 12.0687 20.3734 12.1171 19.4972H12.1093C12.0847 19.3733 12.0671 19.1903 12.0112 19.0195C11.7406 18.1947 10.8872 17.7473 10.0045 17.947ZM18.878 20.9389L18.8734 20.9481C18.7924 21.5607 18.7156 22.1422 18.6367 22.7226C18.6323 22.7523 18.609 22.7923 18.5838 22.8038C17.3776 23.3551 15.7993 23.2781 14.8185 22.1687C14.2886 21.5727 14.0665 20.8629 14.0992 20.0816C14.1763 18.2624 15.7 16.6664 17.5264 16.4433C18.5917 16.3137 19.5218 16.5984 20.2433 17.4187C20.7348 17.9767 20.9625 18.6464 20.9287 19.383C20.9086 19.829 20.8421 20.2723 20.7842 20.7136L20.7687 20.8338C20.6819 21.5191 20.5871 22.2067 20.4958 22.8875L20.491 22.9168C20.4883 22.9319 20.4852 22.9482 20.4817 22.9668H19.05L19.0873 22.6556C19.0936 22.6041 19.1001 22.5528 19.1068 22.5014C19.2107 21.7101 19.3255 20.9166 19.4169 20.1242C19.4736 19.6309 19.4379 19.1409 19.2094 18.6844C18.967 18.1989 18.5611 17.9411 18.0257 17.8853C16.9186 17.7692 15.8611 18.5304 15.6357 19.6041C15.4801 20.3161 15.7255 20.9992 16.2986 21.3787C16.8566 21.7458 17.4485 21.7469 18.0573 21.5093C18.3662 21.3887 18.6277 21.1967 18.878 20.9389ZM9.09936 14.4861H9.47024L9.38254 13.9302L9.09936 14.4861ZM9.52929 14.8454H8.91221L8.71603 15.226H8.27858L9.24249 13.4402H9.66415L9.99225 15.226H9.58746L9.52929 14.8454ZM11.7374 13.8053H11.5175L11.4436 14.2171H11.6634C11.7964 14.2171 11.9013 14.1308 11.9013 13.9682C11.9013 13.8656 11.8413 13.8106 11.7505 13.8056L11.7374 13.8053ZM11.203 13.4425L11.7824 13.4459C12.0845 13.4459 12.2954 13.6244 12.2954 13.9302C12.2954 14.3164 12.0203 14.5753 11.628 14.5753H11.3788L11.2616 15.2283H10.885L11.203 13.4425ZM13.5749 14.486H13.9458L13.8582 13.9302L13.5749 14.486ZM14.0037 14.8454H13.3866L13.1905 15.226H12.753L13.717 13.4402H14.1386L14.4667 15.226H14.0619L14.0037 14.8454ZM16.394 15.1661L16.3933 15.1668C16.2659 15.2244 16.1261 15.2589 15.9852 15.2589C15.5083 15.2589 15.2095 14.905 15.2095 14.4619C15.2095 13.895 15.6909 13.4185 16.2636 13.4185C16.4068 13.4185 16.5365 13.4524 16.6424 13.5099L16.5896 13.9374C16.5103 13.8507 16.3821 13.79 16.2243 13.79C15.8962 13.79 15.6043 14.0836 15.6043 14.424C15.6043 14.6829 15.7689 14.8861 16.0281 14.8861C16.1871 14.8861 16.3404 14.8254 16.4441 14.7421L16.394 15.1661ZM18.7618 14.5084H17.9772L17.8498 15.226H17.4744L17.7923 13.4402H18.1689L18.0426 14.1457H18.8261L18.9535 13.4404H19.33L19.0121 15.2261H18.6355L18.7618 14.5084ZM20.1141 15.2204L20.4314 13.4369H21.4303L21.3668 13.7963H20.7445L20.681 14.1423H21.2526L21.1891 14.5016H20.6175L20.5541 14.861H21.1764L21.113 15.2204H20.1141Z" fill="#3C3A3E"/>
</g>
<defs>
<clipPath id="clip0_11_5050">
<rect width="35" height="18" fill="white" transform="translate(0.5 7)"/>
</clipPath>
</defs>
</svg>
