<svg width="26" height="32" viewBox="0 0 26 32" fill="none" xmlns="http://www.w3.org/2000/svg">
<g clip-path="url(#clip0_11_5012)">
<path d="M19.3191 9.5C17.0898 9.5 15.0362 10.7542 13.0517 12.9455C11.1015 10.7198 9.01357 9.5 6.68078 9.5C2.81846 9.5 0 12.2564 0 15.9673C0 19.6782 2.81836 22.4001 6.68088 22.4001C9.05491 22.4001 10.8947 21.2871 12.9483 19.0682C14.9329 21.294 16.952 22.407 19.3191 22.407C23.1815 22.4001 26 19.6884 26 15.9673C26 12.246 23.1816 9.5 19.3191 9.5ZM6.70841 18.5066C5.07183 18.5066 4.09673 17.4282 4.09673 16.0017C4.09673 14.5753 5.07183 13.4658 6.70841 13.4658C8.08661 13.4658 9.21334 14.5753 10.4331 16.0706C9.2823 17.4626 8.06599 18.5066 6.70841 18.5066ZM19.2019 18.5067C17.8444 18.5067 16.6971 17.4283 15.4773 16.0018C16.7316 14.5064 17.81 13.4659 19.2019 13.4659C20.8386 13.4659 21.8033 14.5892 21.8033 16.0018C21.8033 17.4145 20.8386 18.5067 19.2019 18.5067Z" fill="#484848"/>
<path d="M15.8564 21.4801L18.4544 18.3791C17.4207 18.069 16.4663 17.1387 15.4774 15.9845L12.9485 19.0682C13.7764 20.0288 14.7593 20.844 15.8564 21.4801ZM13.0518 12.9421C12.2292 11.9676 11.2527 11.1342 10.161 10.4751L7.55957 13.6105C8.54848 13.955 9.42365 14.844 10.3539 15.9776L10.4572 16.05L13.0518 12.9421Z" fill="#20A7C9"/>
</g>
<defs>
<clipPath id="clip0_11_5012">
<rect width="26" height="13" fill="white" transform="translate(0 9.5)"/>
</clipPath>
</defs>
</svg>
